<svg width="18" height="18" viewBox="0 0 18 18" fill="none" xmlns="http://www.w3.org/2000/svg">
<path d="M8.29289 11.2929C7.90237 11.6834 7.90237 12.3166 8.29289 12.7071C8.68342 13.0976 9.31658 13.0976 9.70711 12.7071L8.29289 11.2929ZM12 9L12.7071 9.70711C13.0976 9.31658 13.0976 8.68342 12.7071 8.29289L12 9ZM9.70711 5.29289C9.31658 4.90237 8.68342 4.90237 8.29289 5.29289C7.90237 5.68342 7.90237 6.31658 8.29289 6.70711L9.70711 5.29289ZM1 8C0.447715 8 0 8.44772 0 9C5.96046e-08 9.55229 0.447715 10 1 10L1 8ZM7.23438 16.8478L6.85169 17.7717L7.23438 16.8478ZM7 14C7 13.4477 6.55228 13 6 13C5.44772 13 5 13.4477 5 14H7ZM6.15224 15.7654L5.22836 16.1481L6.15224 15.7654ZM16.7822 15.908L15.8912 15.454L16.7822 15.908ZM15.9078 16.782L15.4538 15.891L15.9078 16.782ZM15.9078 1.21799L16.3618 0.32698V0.32698L15.9078 1.21799ZM16.7822 2.09204L15.8912 2.54603V2.54603L16.7822 2.09204ZM5 3.99999C5 4.55227 5.44772 4.99999 6 4.99999C6.55228 4.99999 7 4.55227 7 3.99999H5ZM9.70711 12.7071L12.7071 9.70711L11.2929 8.29289L8.29289 11.2929L9.70711 12.7071ZM12.7071 8.29289L9.70711 5.29289L8.29289 6.70711L11.2929 9.70711L12.7071 8.29289ZM12 8L1 8L1 10L12 10V8ZM9 2H13.8V0H9V2ZM16 4.19995V13.8H18V4.19995H16ZM13.8 16H9V18H13.8V16ZM9 16C8.52037 16 8.21066 15.9995 7.9736 15.9833C7.74548 15.9677 7.65862 15.9411 7.61706 15.9239L6.85169 17.7717C7.17767 17.9067 7.50768 17.9562 7.83752 17.9787C8.15842 18.0005 8.54775 18 9 18V16ZM5 14C5 14.4523 4.99946 14.8415 5.02135 15.1624C5.04385 15.4922 5.09336 15.8221 5.22836 16.1481L7.07612 15.3827C7.05888 15.3411 7.03227 15.2542 7.01671 15.0262C7.00054 14.7893 7 14.4796 7 14H5ZM7.61706 15.9239C7.37228 15.8225 7.17772 15.628 7.07612 15.3827L5.22836 16.1481C5.53274 16.8829 6.11636 17.4671 6.85169 17.7717L7.61706 15.9239ZM16 13.8C16 14.3766 15.9993 14.7489 15.9762 15.0323C15.954 15.3041 15.9163 15.4047 15.8912 15.454L17.6732 16.362C17.8661 15.9835 17.9373 15.5902 17.9696 15.1949C18.0008 14.8112 18 14.3434 18 13.8H16ZM13.8 18C14.3436 18 14.8113 18.0008 15.195 17.9694C15.5903 17.9371 15.9834 17.8658 16.3618 17.673L15.4538 15.891C15.4043 15.9162 15.3036 15.9539 15.032 15.9761C14.7488 15.9992 14.3765 16 13.8 16V18ZM15.8912 15.454C15.7956 15.6417 15.6425 15.7948 15.4538 15.891L16.3618 17.673C16.9257 17.3856 17.3853 16.927 17.6732 16.362L15.8912 15.454ZM13.8 2C14.3766 2 14.7488 2.00078 15.0321 2.02393C15.3036 2.04612 15.4043 2.08379 15.4538 2.10899L16.3618 0.32698C15.9834 0.1342 15.5903 0.0628753 15.1949 0.0305704C14.8113 -0.00077796 14.3435 0 13.8 0V2ZM18 4.19995C18 3.6565 18.0008 3.1887 17.9695 2.80511C17.9373 2.40983 17.8661 2.01653 17.6732 1.63805L15.8912 2.54603C15.9164 2.59537 15.954 2.69598 15.9762 2.96767C15.9993 3.25105 16 3.6233 16 4.19995H18ZM15.4538 2.10899C15.6424 2.20508 15.7956 2.35828 15.8912 2.54603L17.6732 1.63805C17.3854 1.07315 16.9259 0.614392 16.3618 0.32698L15.4538 2.10899ZM7 3.99999C7 3.52036 7.00054 3.21073 7.01671 2.97375C7.03227 2.74575 7.05888 2.65892 7.07612 2.6173L5.22836 1.85194C5.09336 2.17786 5.04385 2.50777 5.02135 2.8376C4.99946 3.15845 5 3.54773 5 3.99999H7ZM9 0C8.54773 0 8.15841 -0.00054121 7.8375 0.0213486C7.50766 0.0438484 7.17766 0.0933421 6.85169 0.228361L7.61706 2.07612C7.65864 2.0589 7.7455 2.03227 7.97362 2.01671C8.21067 2.00054 8.52038 2 9 2V0ZM7.07612 2.6173C7.17771 2.37205 7.37225 2.17752 7.61706 2.07612L6.85169 0.228361C6.11639 0.532935 5.53275 1.11707 5.22836 1.85194L7.07612 2.6173Z" fill="#CD3838"/>
</svg>
