<svg width="20" height="19" viewBox="0 0 20 19" fill="none" xmlns="http://www.w3.org/2000/svg">
<path d="M14 4.50005C14 3.94776 14.4477 3.50005 15 3.50005C15.5523 3.50005 16 3.94776 16 4.50005C16 5.05233 15.5523 5.50005 15 5.50005C14.4477 5.50005 14 5.05233 14 4.50005Z" fill="white"/>
<path fill-rule="evenodd" clip-rule="evenodd" d="M10 4.75005C7.37665 4.75005 5.25 6.87669 5.25 9.50005C5.25 12.1234 7.37665 14.25 10 14.25C12.6234 14.25 14.75 12.1234 14.75 9.50005C14.75 6.87669 12.6234 4.75005 10 4.75005ZM6.75 9.50005C6.75 7.70512 8.20507 6.25005 10 6.25005C11.7949 6.25005 13.25 7.70512 13.25 9.50005C13.25 11.295 11.7949 12.75 10 12.75C8.20507 12.75 6.75 11.295 6.75 9.50005Z" fill="white"/>
<path fill-rule="evenodd" clip-rule="evenodd" d="M15.2583 0.333061C11.7917 -0.0543797 8.20834 -0.0543797 4.74177 0.333061C2.72971 0.557938 1.10538 2.14295 0.868826 4.16548C0.454288 7.70978 0.454288 11.2903 0.868826 14.8346C1.10538 16.8571 2.72971 18.4422 4.74177 18.667C8.20835 19.0545 11.7917 19.0545 15.2583 18.667C17.2703 18.4422 18.8946 16.8571 19.1312 14.8346C19.5457 11.2903 19.5457 7.70978 19.1312 4.16548C18.8946 2.14295 17.2703 0.557938 15.2583 0.333061ZM4.90838 1.82378C8.26423 1.44871 11.7358 1.44871 15.0916 1.82378C16.4218 1.97244 17.4872 3.02205 17.6414 4.33973C18.0424 7.76825 18.0424 11.2318 17.6414 14.6604C17.4872 15.978 16.4218 17.0277 15.0916 17.1763C11.7358 17.5514 8.26423 17.5514 4.90838 17.1763C3.57827 17.0277 2.51278 15.978 2.35867 14.6604C1.95767 11.2318 1.95767 7.76825 2.35867 4.33973C2.51278 3.02205 3.57827 1.97244 4.90838 1.82378Z" fill="white"/>
</svg>
