<svg width="22" height="22" viewBox="0 0 22 22" fill="none" xmlns="http://www.w3.org/2000/svg">
<path d="M20 21C20 21.5523 20.4477 22 21 22C21.5523 22 22 21.5523 22 21H20ZM0 21C0 21.5523 0.447715 22 1 22C1.55228 22 2 21.5523 2 21H0ZM22 21C22 19.9955 21.5066 19.0005 20.8573 18.1393C20.1919 17.2566 19.2776 16.4005 18.2418 15.6534C16.1915 14.1746 13.4896 13 11 13V15C12.9287 15 15.2267 15.9447 17.0719 17.2755C17.9838 17.9333 18.7411 18.6546 19.2603 19.3433C19.7957 20.0534 20 20.6238 20 21H22ZM11 13C8.51045 13 5.80846 14.1746 3.75816 15.6534C2.7224 16.4005 1.80814 17.2566 1.14267 18.1393C0.493401 19.0005 0 19.9955 0 21H2C2 20.6238 2.20431 20.0534 2.73969 19.3433C3.25886 18.6546 4.01617 17.9333 4.92813 17.2755C6.77326 15.9447 9.07128 15 11 15V13ZM11 10C8.79086 10 7 8.20914 7 6H5C5 9.31371 7.68629 12 11 12V10ZM7 6C7 3.79086 8.79086 2 11 2V0C7.68629 0 5 2.68629 5 6H7ZM11 2C13.2091 2 15 3.79086 15 6H17C17 2.68629 14.3137 0 11 0V2ZM15 6C15 8.20914 13.2091 10 11 10V12C14.3137 12 17 9.31371 17 6H15Z" fill="#CD3838"/>
</svg>
