<svg width="22" height="22" viewBox="0 0 22 22" fill="none" xmlns="http://www.w3.org/2000/svg">
<path d="M18.9839 7.71933L18.4977 8.59321L18.4977 8.59321L18.9839 7.71933ZM19.3501 7.92306L19.8362 7.04918L19.8362 7.04918L19.3501 7.92306ZM20.9946 10.7123L21.9946 10.71V10.71L20.9946 10.7123ZM20.9959 11.2744L19.9959 11.2766V11.2766L20.9959 11.2744ZM19.3469 14.0805L19.8316 14.9552V14.9552L19.3469 14.0805ZM18.9853 14.2809L18.5006 13.4062V13.4062L18.9853 14.2809ZM17.8345 16.2726L18.8343 16.2557L17.8345 16.2726ZM17.8416 16.6972L16.8418 16.714L17.8416 16.6972ZM16.2484 19.5186L16.7504 20.3835H16.7504L16.2484 19.5186ZM15.7607 19.8017L15.2588 18.9368H15.2588L15.7607 19.8017ZM12.5074 19.7776L11.9927 20.6349L11.9927 20.6349L12.5074 19.7776ZM12.1514 19.5638L12.6661 18.7065L12.6661 18.7065L12.1514 19.5638ZM9.84942 19.5625L9.3357 18.7045L9.84942 19.5625ZM9.4956 19.7743L10.0093 20.6323L9.4956 19.7743ZM6.25395 19.8016L5.75467 20.668L6.25395 19.8016ZM5.76025 19.5171L6.25953 18.6506L5.76025 19.5171ZM4.15868 16.6905L5.15854 16.7073L4.15868 16.6905ZM4.16556 16.2829L3.16571 16.2661L4.16556 16.2829ZM3.00824 14.2761L2.52209 15.15H2.52209L3.00824 14.2761ZM2.6499 14.0768L3.13604 13.2029H3.13604L2.6499 14.0768ZM1.00566 11.2877L2.00566 11.2854L1.00566 11.2877ZM1.00439 10.7256L0.00439066 10.7278L1.00439 10.7256ZM2.65331 7.91933L2.1686 7.04466L2.65331 7.91933ZM3.01488 7.71897L3.49959 8.59364L3.01488 7.71897ZM4.16534 5.72737L3.16548 5.74419L4.16534 5.72737ZM4.1582 5.30271L5.15806 5.28588V5.28588L4.1582 5.30271ZM5.75146 2.48125L5.24949 1.61636V1.61636L5.75146 2.48125ZM6.23912 2.19821L6.74109 3.0631L6.23912 2.19821ZM9.49267 2.22226L10.0074 1.3649V1.3649L9.49267 2.22226ZM9.84875 2.43603L9.33403 3.29339L9.84875 2.43603ZM12.1504 2.43742L11.6367 1.57946V1.57946L12.1504 2.43742ZM12.5042 2.22556L13.0179 3.08351V3.08351L12.5042 2.22556ZM15.7456 2.19834L15.2463 3.06477L15.7456 2.19834ZM16.2394 2.48289L16.7387 1.61646L16.7387 1.61646L16.2394 2.48289ZM17.8415 5.3093L16.8416 5.29247V5.29248L17.8415 5.3093ZM17.8345 5.7263L18.8343 5.74312V5.74312L17.8345 5.7263ZM17.8332 5.85644L18.8331 5.84116L17.8332 5.85644ZM18.134 6.88323L18.9999 6.38303L18.134 6.88323ZM18.0698 6.77011L17.1883 7.24225L18.0698 6.77011ZM17.346 3.23715L18.0921 2.57135V2.57135L17.346 3.23715ZM17.7627 3.97275L18.7172 3.67472L17.7627 3.97275ZM13.6981 1.62778L13.9171 2.6035L13.6981 1.62778ZM14.5415 1.62082L14.3388 2.60007V2.60007L14.5415 1.62082ZM11.1304 2.75424L11.0983 1.75476L11.1304 2.75424ZM12.0381 2.50322L12.524 3.37721L12.0381 2.50322ZM9.96081 2.50215L9.47392 3.37561L9.96081 2.50215ZM10.8706 2.75424L10.9027 1.75476L10.8706 2.75424ZM7.44695 1.6146L7.65141 2.59347L7.44695 1.6146ZM8.29394 1.62082L8.07502 2.59656L8.29394 1.62082ZM4.23677 3.97031L5.1916 4.26745L4.23677 3.97031ZM4.65136 3.23622L3.90379 2.57204L4.65136 3.23622ZM3.8662 6.88238L4.73212 7.38258L3.8662 6.88238ZM3.92941 6.77097L3.04811 6.29841L3.92941 6.77097ZM4.16668 5.85548L5.16657 5.87028L4.16668 5.85548ZM3.12626 7.65598L2.61411 6.79708L3.12626 7.65598ZM3.80126 6.99277L2.95161 6.46543H2.95161L3.80126 6.99277ZM1.10281 9.38718L2.05273 9.69969L1.10281 9.38718ZM1.53222 8.65675L2.26755 9.33447H2.26755L1.53222 8.65675ZM1.53661 13.3426L0.801437 14.0205H0.801437L1.53661 13.3426ZM1.10882 12.6171L0.15975 12.9321L1.10882 12.6171ZM3.86796 15.1257L4.73584 14.6289H4.73584L3.86796 15.1257ZM3.79785 15.0056L2.94753 15.5319L3.79785 15.0056ZM3.12926 14.3447L2.6134 15.2014L3.12926 14.3447ZM4.16669 16.1455L3.16683 16.1625L4.16669 16.1455ZM3.9354 15.2455L4.81964 14.7785L3.9354 15.2455ZM4.65429 18.7627L3.90815 19.4285L4.65429 18.7627ZM4.23726 18.0271L5.19182 17.7291L4.23726 18.0271ZM8.30175 20.372L8.52079 21.3478L8.30175 20.372ZM7.45841 20.3791L7.25573 21.3583L7.45841 20.3791ZM10.8691 19.2456L10.8371 18.2461L10.8371 18.2461L10.8691 19.2456ZM9.96161 19.4967L10.4475 20.3707L9.96161 19.4967ZM12.0391 19.4977L12.5259 18.6242L12.0391 19.4977ZM11.1297 19.2456L11.1619 18.2462H11.1619L11.1297 19.2456ZM14.5527 20.3853L14.7572 21.3642L14.5527 20.3853ZM13.7063 20.3789L13.9252 19.4032L13.7063 20.3789ZM17.7632 18.0296L18.718 18.3267L17.7632 18.0296ZM17.3486 18.7636L18.0961 19.4278L17.3486 18.7636ZM18.1335 15.1175L17.2676 14.6173L18.1335 15.1175ZM18.0703 15.2289L17.189 14.7564L18.0703 15.2289ZM17.8332 16.1445L16.8333 16.1297L17.8332 16.1445ZM18.8735 14.344L19.3857 15.2029L18.8735 14.344ZM18.1988 15.0071L19.0484 15.5344L18.1988 15.0071ZM20.897 12.6127L21.8469 12.9252L20.897 12.6127ZM20.4678 13.3431L19.7325 12.6654L20.4678 13.3431ZM20.4632 8.65722L21.1984 7.97934V7.97934L20.4632 8.65722ZM20.8911 9.38278L19.942 9.69785L20.8911 9.38278ZM18.8711 7.65537L19.385 6.7975L18.8711 7.65537ZM18.2 6.99495L17.3506 7.52261L18.2 6.99495ZM11 14C9.34314 14 7.99999 12.6568 7.99999 11H5.99999C5.99999 13.7614 8.23857 16 11 16V14ZM7.99999 11C7.99999 9.34312 9.34314 7.99997 11 7.99997V5.99997C8.23857 5.99997 5.99999 8.23855 5.99999 11H7.99999ZM11 7.99997C12.6568 7.99997 14 9.34312 14 11H16C16 8.23855 13.7614 5.99997 11 5.99997V7.99997ZM14 11C14 12.6568 12.6568 14 11 14V16C13.7614 16 16 13.7614 16 11H14ZM18.4977 8.59321L18.864 8.79694L19.8362 7.04918L19.47 6.84545L18.4977 8.59321ZM19.9946 10.7145L19.9959 11.2766L21.9959 11.2721L21.9946 10.71L19.9946 10.7145ZM18.8622 13.2059L18.5006 13.4062L19.4701 15.1556L19.8316 14.9552L18.8622 13.2059ZM16.8346 16.2894L16.8418 16.714L18.8415 16.6804L18.8343 16.2557L16.8346 16.2894ZM15.7464 18.6538L15.2588 18.9368L16.2627 20.6666L16.7504 20.3835L15.7464 18.6538ZM13.0222 18.9202L12.6661 18.7065L11.6366 20.4212L11.9927 20.6349L13.0222 18.9202ZM9.3357 18.7045L8.98188 18.9164L10.0093 20.6323L10.3631 20.4204L9.3357 18.7045ZM6.75324 18.9351L6.25953 18.6506L5.26096 20.3835L5.75467 20.668L6.75324 18.9351ZM5.15854 16.7073L5.16542 16.2998L3.16571 16.2661L3.15883 16.6736L5.15854 16.7073ZM3.49438 13.4022L3.13604 13.2029L2.16375 14.9506L2.52209 15.15L3.49438 13.4022ZM2.00566 11.2854L2.00439 10.7233L0.00439066 10.7278L0.00566745 11.29L2.00566 11.2854ZM3.13803 8.794L3.49959 8.59364L2.53016 6.84429L2.1686 7.04466L3.13803 8.794ZM5.1652 5.71054L5.15806 5.28588L3.15834 5.31953L3.16548 5.74419L5.1652 5.71054ZM6.25343 3.34613L6.74109 3.0631L5.73715 1.33333L5.24949 1.61636L6.25343 3.34613ZM8.97795 3.07962L9.33403 3.29339L10.3635 1.57867L10.0074 1.3649L8.97795 3.07962ZM12.6641 3.29537L13.0179 3.08351L11.9905 1.3676L11.6367 1.57946L12.6641 3.29537ZM15.2463 3.06477L15.7401 3.34933L16.7387 1.61646L16.2449 1.3319L15.2463 3.06477ZM16.8416 5.29248L16.8346 5.70948L18.8343 5.74312L18.8413 5.32612L16.8416 5.29248ZM16.8346 5.70947C16.8337 5.76501 16.8325 5.81919 16.8333 5.87173L18.8331 5.84116C18.8329 5.82954 18.8331 5.81791 18.8343 5.74312L16.8346 5.70947ZM18.9999 6.38303C18.9642 6.32121 18.9572 6.30886 18.9513 6.29798L17.1883 7.24225C17.2128 7.28794 17.2385 7.33232 17.2681 7.38342L18.9999 6.38303ZM16.8333 5.87173C16.8406 6.35022 16.9622 6.82014 17.1883 7.24225L18.9513 6.29798C18.8761 6.15744 18.8355 6.00085 18.8331 5.84116L16.8333 5.87173ZM15.7401 3.34933C16.3948 3.72657 16.5182 3.81142 16.5999 3.90295L18.0921 2.57135C17.7448 2.18208 17.273 1.92438 16.7387 1.61646L15.7401 3.34933ZM18.8413 5.32612C18.8517 4.70878 18.8727 4.17257 18.7172 3.67472L16.8081 4.27078C16.8447 4.38804 16.8543 4.53775 16.8416 5.29247L18.8413 5.32612ZM16.5999 3.90295C16.6945 4.00897 16.7655 4.13433 16.8081 4.27078L18.7172 3.67472C18.5899 3.267 18.3771 2.89068 18.0921 2.57135L16.5999 3.90295ZM13.0179 3.08351C13.6645 2.69639 13.7977 2.63029 13.9171 2.6035L13.479 0.652063C12.9712 0.766066 12.518 1.05171 11.9905 1.3676L13.0179 3.08351ZM16.2449 1.3319C15.7113 1.02444 15.2536 0.747017 14.7442 0.641574L14.3388 2.60007C14.4588 2.62491 14.5942 2.68897 15.2463 3.06477L16.2449 1.3319ZM13.9171 2.6035C14.0556 2.57241 14.1994 2.5712 14.3388 2.60007L14.7442 0.641574C14.3267 0.55518 13.8954 0.558584 13.479 0.652063L13.9171 2.6035ZM11.0005 3.75527C11.0595 3.75527 11.1107 3.75539 11.1625 3.75373L11.0983 1.75476C11.086 1.75515 11.0719 1.75527 11.0005 1.75527V3.75527ZM11.6367 1.57946C11.5799 1.61345 11.5644 1.62243 11.5521 1.62922L12.524 3.37721C12.5679 3.35283 12.609 3.32839 12.6641 3.29537L11.6367 1.57946ZM11.1625 3.75373C11.64 3.7384 12.1067 3.60923 12.524 3.37721L11.5521 1.62922C11.4129 1.70664 11.2573 1.74966 11.0983 1.75476L11.1625 3.75373ZM9.33403 3.29339C9.38389 3.32333 9.42835 3.35021 9.47392 3.37561L10.4477 1.62868C10.4371 1.62277 10.4257 1.61605 10.3635 1.57867L9.33403 3.29339ZM11.0005 1.75527C10.9289 1.75527 10.9151 1.75516 10.9027 1.75476L10.8384 3.75373C10.8904 3.7554 10.9413 3.75527 11.0005 3.75527V1.75527ZM9.47392 3.37561C9.89204 3.60868 10.3601 3.73834 10.8384 3.75373L10.9027 1.75476C10.7432 1.74963 10.587 1.70633 10.4477 1.62868L9.47392 3.37561ZM6.74109 3.0631C7.39531 2.6834 7.53101 2.61862 7.65141 2.59347L7.24249 0.63572C6.73108 0.742539 6.27199 1.02292 5.73715 1.33333L6.74109 3.0631ZM10.0074 1.3649C9.47756 1.04682 9.02273 0.759476 8.51286 0.645079L8.07502 2.59656C8.19493 2.62347 8.32906 2.69006 8.97795 3.07962L10.0074 1.3649ZM7.65141 2.59347C7.79124 2.56426 7.93583 2.56533 8.07502 2.59656L8.51286 0.645079C8.0949 0.551304 7.66159 0.548183 7.24249 0.63572L7.65141 2.59347ZM5.15806 5.28588C5.14541 4.53445 5.15515 4.38458 5.1916 4.26745L3.28193 3.67316C3.12747 4.16951 3.14797 4.70349 3.15834 5.31953L5.15806 5.28588ZM5.24949 1.61636C4.71705 1.92539 4.24913 2.18335 3.90379 2.57204L5.39893 3.9004C5.48032 3.80879 5.60299 3.72364 6.25343 3.34613L5.24949 1.61636ZM5.1916 4.26745C5.23378 4.1319 5.30446 4.00674 5.39893 3.9004L3.90379 2.57204C3.62074 2.89063 3.40865 3.26599 3.28193 3.67316L5.1916 4.26745ZM4.73212 7.38258C4.76123 7.33218 4.78657 7.28854 4.81071 7.24353L3.04811 6.29841C3.04235 6.30914 3.03549 6.32125 3.00029 6.38219L4.73212 7.38258ZM3.16548 5.74419C3.16675 5.81957 3.16695 5.82945 3.16679 5.84067L5.16657 5.87028C5.16734 5.81825 5.1661 5.76378 5.1652 5.71054L3.16548 5.74419ZM4.81071 7.24353C5.03729 6.82096 5.15946 6.35008 5.16657 5.87028L3.16679 5.84067C3.16442 6.00036 3.12375 6.15733 3.04811 6.29841L4.81071 7.24353ZM3.49959 8.59364C3.55301 8.56403 3.59519 8.54064 3.6384 8.51487L2.61411 6.79708C2.60296 6.80373 2.58932 6.81151 2.53016 6.84429L3.49959 8.59364ZM3.00029 6.38219C2.96529 6.44278 2.9581 6.45498 2.95161 6.46543L4.65092 7.52011C4.6778 7.47679 4.70275 7.43341 4.73212 7.38258L3.00029 6.38219ZM3.6384 8.51487C4.05074 8.269 4.39791 7.92776 4.65092 7.52011L2.95161 6.46543C2.86717 6.60148 2.75138 6.71522 2.61411 6.79708L3.6384 8.51487ZM2.00439 10.7233C2.00267 9.96607 2.0143 9.81649 2.05273 9.69969L0.152899 9.07467C-0.0104773 9.57126 0.00298619 10.1095 0.00439066 10.7278L2.00439 10.7233ZM2.1686 7.04466C1.62748 7.34453 1.15114 7.59468 0.796895 7.97904L2.26755 9.33447C2.35093 9.24399 2.47602 9.16087 3.13803 8.794L2.1686 7.04466ZM2.05273 9.69969C2.09722 9.56446 2.17045 9.43981 2.26755 9.33447L0.796895 7.97904C0.506841 8.29375 0.286933 8.66726 0.152899 9.07467L2.05273 9.69969ZM3.13604 13.2029C2.47883 12.8373 2.35467 12.7546 2.27179 12.6647L0.801437 14.0205C1.15371 14.4025 1.62695 14.652 2.16375 14.9506L3.13604 13.2029ZM0.00566745 11.29C0.00706166 11.9038 -0.00401688 12.4388 0.15975 12.9321L2.05789 12.302C2.0194 12.1861 2.00737 12.0379 2.00566 11.2854L0.00566745 11.29ZM2.27179 12.6647C2.17548 12.5603 2.10259 12.4367 2.05789 12.302L0.15975 12.9321C0.29398 13.3365 0.51277 13.7074 0.801437 14.0205L2.27179 12.6647ZM4.73584 14.6289C4.70443 14.5741 4.67734 14.5265 4.64816 14.4793L2.94753 15.5319C2.95449 15.5431 2.9621 15.5561 3.00008 15.6225L4.73584 14.6289ZM2.52209 15.15C2.5896 15.1875 2.60225 15.1947 2.6134 15.2014L3.64512 13.4881C3.59745 13.4594 3.54884 13.4325 3.49438 13.4022L2.52209 15.15ZM4.64816 14.4793C4.39753 14.0744 4.05409 13.7343 3.64512 13.4881L2.6134 15.2014C2.74906 15.2831 2.86358 15.3962 2.94753 15.5319L4.64816 14.4793ZM5.16542 16.2998C5.16649 16.2363 5.16747 16.1829 5.16654 16.1284L3.16683 16.1625C3.16706 16.1759 3.16696 16.1917 3.16571 16.2661L5.16542 16.2998ZM3.00008 15.6225C3.03981 15.6919 3.04549 15.7018 3.05117 15.7125L4.81964 14.7785C4.79363 14.7292 4.76464 14.6792 4.73584 14.6289L3.00008 15.6225ZM5.16654 16.1284C5.15851 15.6573 5.0396 15.1949 4.81964 14.7785L3.05117 15.7125C3.12455 15.8515 3.16416 16.0056 3.16683 16.1625L5.16654 16.1284ZM6.25953 18.6506C5.6059 18.274 5.48229 18.1886 5.40043 18.0969L3.90815 19.4285C4.25534 19.8175 4.72556 20.075 5.26096 20.3835L6.25953 18.6506ZM3.15883 16.6736C3.14841 17.2906 3.12723 17.8271 3.28269 18.3251L5.19182 17.7291C5.15524 17.6119 5.14579 17.4625 5.15854 16.7073L3.15883 16.6736ZM5.40043 18.0969C5.30527 17.9902 5.23417 17.8648 5.19182 17.7291L3.28269 18.3251C3.41023 18.7336 3.62374 19.1097 3.90815 19.4285L5.40043 18.0969ZM8.98188 18.9164C8.33544 19.3034 8.20212 19.3695 8.08271 19.3963L8.52079 21.3478C9.0286 21.2338 9.48166 20.9482 10.0093 20.6323L8.98188 18.9164ZM5.75467 20.668C6.28858 20.9757 6.74637 21.2529 7.25573 21.3583L7.66108 19.3998C7.54096 19.375 7.40503 19.3107 6.75324 18.9351L5.75467 20.668ZM8.08271 19.3963C7.94408 19.4275 7.80039 19.4287 7.66108 19.3998L7.25573 21.3583C7.67331 21.4447 8.10454 21.4412 8.52079 21.3478L8.08271 19.3963ZM10.9991 18.2446C10.94 18.2446 10.8889 18.2445 10.8371 18.2461L10.9012 20.2451C10.9136 20.2447 10.9277 20.2446 10.9991 20.2446V18.2446ZM10.3631 20.4204C10.4211 20.3857 10.4358 20.3772 10.4475 20.3707L9.47568 18.6227C9.43138 18.6473 9.3897 18.6722 9.3357 18.7045L10.3631 20.4204ZM10.8371 18.2461C10.3595 18.2615 9.89288 18.3907 9.47568 18.6227L10.4475 20.3707C10.5869 20.2932 10.7423 20.2502 10.9012 20.2451L10.8371 18.2461ZM12.6661 18.7065C12.6143 18.6754 12.571 18.6493 12.5259 18.6242L11.5522 20.3711C11.5633 20.3773 11.5763 20.3849 11.6366 20.4212L12.6661 18.7065ZM10.9991 20.2446C11.0707 20.2446 11.0852 20.2447 11.0976 20.2451L11.1619 18.2462C11.11 18.2445 11.0582 18.2446 10.9991 18.2446V20.2446ZM12.5259 18.6242C12.1079 18.3912 11.6403 18.2615 11.1619 18.2462L11.0976 20.2451C11.257 20.2502 11.4128 20.2934 11.5522 20.3711L12.5259 18.6242ZM15.2588 18.9368C14.6047 19.3164 14.4687 19.3813 14.3483 19.4064L14.7572 21.3642C15.2686 21.2574 15.7277 20.9771 16.2627 20.6666L15.2588 18.9368ZM11.9927 20.6349C12.5228 20.9532 12.9775 21.2403 13.4873 21.3547L13.9252 19.4032C13.8052 19.3763 13.6708 19.3096 13.0222 18.9202L11.9927 20.6349ZM14.3483 19.4064C14.2088 19.4356 14.0647 19.4345 13.9252 19.4032L13.4873 21.3547C13.905 21.4484 14.3378 21.4518 14.7572 21.3642L14.3483 19.4064ZM16.8418 16.714C16.8544 17.4658 16.8448 17.6154 16.8083 17.7324L18.718 18.3267C18.8725 17.8303 18.8518 17.2961 18.8415 16.6804L16.8418 16.714ZM16.7504 20.3835C17.2828 20.0745 17.7508 19.8165 18.0961 19.4278L16.601 18.0995C16.5196 18.1911 16.3969 18.2762 15.7464 18.6538L16.7504 20.3835ZM16.8083 17.7324C16.7662 17.8679 16.6955 17.9931 16.601 18.0995L18.0961 19.4278C18.3791 19.1093 18.5913 18.734 18.718 18.3267L16.8083 17.7324ZM17.2676 14.6173C17.2385 14.6677 17.2131 14.7114 17.189 14.7564L18.9516 15.7015C18.9574 15.6908 18.9642 15.6786 18.9994 15.6177L17.2676 14.6173ZM18.8343 16.2557C18.8331 16.1814 18.8329 16.1707 18.8331 16.1593L16.8333 16.1297C16.8325 16.1816 16.8337 16.2351 16.8346 16.2894L18.8343 16.2557ZM17.189 14.7564C16.9623 15.1792 16.8404 15.6502 16.8333 16.1297L18.8331 16.1593C18.8354 15.9993 18.8761 15.8423 18.9516 15.7015L17.189 14.7564ZM18.5006 13.4062C18.4505 13.434 18.4055 13.4588 18.3614 13.4851L19.3857 15.2029C19.396 15.1967 19.4076 15.1902 19.4701 15.1556L18.5006 13.4062ZM18.9994 15.6177C19.0317 15.5619 19.041 15.5464 19.0484 15.5344L17.3491 14.4797C17.3232 14.5215 17.2997 14.5618 17.2676 14.6173L18.9994 15.6177ZM18.3614 13.4851C17.9489 13.731 17.602 14.0722 17.3491 14.4797L19.0484 15.5344C19.1329 15.3982 19.2485 15.2846 19.3857 15.2029L18.3614 13.4851ZM19.9959 11.2766C19.9976 12.0325 19.9856 12.1831 19.9471 12.3002L21.8469 12.9252C22.0102 12.4289 21.9973 11.8917 21.9959 11.2721L19.9959 11.2766ZM19.8316 14.9552C20.373 14.6552 20.849 14.4051 21.2032 14.0208L19.7325 12.6654C19.6491 12.7559 19.524 12.8391 18.8622 13.2059L19.8316 14.9552ZM19.9471 12.3002C19.9024 12.436 19.8292 12.5604 19.7325 12.6654L21.2032 14.0208C21.4936 13.7057 21.713 13.3321 21.8469 12.9252L19.9471 12.3002ZM18.864 8.79694C19.5209 9.16239 19.6451 9.24515 19.728 9.33509L21.1984 7.97934C20.8461 7.59735 20.3733 7.34797 19.8362 7.04918L18.864 8.79694ZM21.9946 10.71C21.9932 10.0953 22.0039 9.56082 21.8402 9.06772L19.942 9.69785C19.9806 9.81399 19.9929 9.96291 19.9946 10.7145L21.9946 10.71ZM19.728 9.33509C19.8245 9.43973 19.8974 9.56344 19.942 9.69785L21.8402 9.06772C21.7059 8.66314 21.4869 8.29222 21.1984 7.97934L19.728 9.33509ZM19.47 6.84545C19.4086 6.81131 19.3958 6.80397 19.385 6.7975L18.3572 8.51323C18.4013 8.53967 18.4454 8.56408 18.4977 8.59321L19.47 6.84545ZM17.2681 7.38342C17.3012 7.44085 17.3246 7.48082 17.3506 7.52261L19.0495 6.46728C19.0416 6.45466 19.0319 6.43839 18.9999 6.38303L17.2681 7.38342ZM19.385 6.7975C19.2486 6.71581 19.1336 6.60264 19.0495 6.46728L17.3506 7.52261C17.6024 7.92807 17.9474 8.26776 18.3572 8.51323L19.385 6.7975Z" fill="#CD3838"/>
</svg>
