<svg width="20" height="17" viewBox="0 0 20 17" fill="none" xmlns="http://www.w3.org/2000/svg">
<path d="M18.9619 10.6099L17.9811 10.805L18.9619 10.6099ZM17.3902 9.03843L17.5853 8.05764L17.3902 9.03843ZM17.3902 15.9615L17.1951 14.9808L17.3902 15.9615ZM18.9619 14.3902L17.9811 14.1951L18.9619 14.3902ZM14.0384 14.3902L13.0576 14.5853L14.0384 14.3902ZM15.6094 15.9615L15.8045 14.9808L15.6094 15.9615ZM14.0384 10.6099L13.0576 10.4148L14.0384 10.6099ZM15.6094 9.03843L15.4143 8.05764L15.6094 9.03843ZM1.03843 10.6099L0.0576442 10.4148L1.03843 10.6099ZM2.60938 9.03843L2.41428 8.05764L2.60938 9.03843ZM2.60938 15.9615L2.80447 14.9808L2.60938 15.9615ZM1.03843 14.3902L0.0576441 14.5853H0.0576442L1.03843 14.3902ZM5.96191 14.3902L4.98113 14.1951L5.96191 14.3902ZM4.39018 15.9615L4.19509 14.9808L4.39018 15.9615ZM5.96191 10.6099L4.98113 10.805L5.96191 10.6099ZM4.39018 9.03843L4.58527 8.05764L4.39018 9.03843ZM16 8C16 8.55228 16.4477 9 17 9C17.5523 9 18 8.55228 18 8H16ZM2 8C2 8.55228 2.44772 9 3 9C3.55228 9 4 8.55228 4 8H2ZM13 11.5V13.5H15V11.5H13ZM20 13.5V11.5H18V13.5H20ZM20 11.5C20 11.0846 20.0052 10.7292 19.9427 10.4148L17.9811 10.805C17.9954 10.8769 18 10.9861 18 11.5H20ZM16.5 10C17.0126 10 17.1228 10.0048 17.1951 10.0192L17.5853 8.05764C17.2711 7.99516 16.9167 8 16.5 8V10ZM19.9427 10.4148C19.7059 9.22449 18.7751 8.29432 17.5853 8.05764L17.1951 10.0192C17.592 10.0982 17.9023 10.4085 17.9811 10.805L19.9427 10.4148ZM16.5 17C16.9167 17 17.2711 17.0048 17.5853 16.9423L17.1951 14.9808C17.1228 14.9951 17.0126 15 16.5 15V17ZM18 13.5C18 14.0139 17.9954 14.1231 17.9811 14.1951L19.9427 14.5853C20.0052 14.2708 20 13.9154 20 13.5H18ZM17.5853 16.9423C18.7751 16.7057 19.7059 15.7756 19.9427 14.5853L17.9811 14.1951C17.9023 14.5915 17.592 14.9018 17.1951 14.9808L17.5853 16.9423ZM13 13.5C13 13.9167 12.9952 14.2711 13.0576 14.5853L15.0192 14.1951C15.0048 14.1228 15 14.0126 15 13.5H13ZM16.5 15C15.9874 15 15.8767 14.9951 15.8045 14.9808L15.4143 16.9423C15.7284 17.0048 16.0833 17 16.5 17V15ZM13.0576 14.5853C13.2943 15.775 14.2239 16.7056 15.4143 16.9423L15.8045 14.9808C15.4081 14.9019 15.0982 14.5921 15.0192 14.1951L13.0576 14.5853ZM15 11.5C15 10.9874 15.0048 10.8772 15.0192 10.805L13.0576 10.4148C12.9952 10.7289 13 11.0833 13 11.5H15ZM16.5 8C16.0833 8 15.7284 7.99515 15.4143 8.05764L15.8045 10.0192C15.8767 10.0048 15.9874 10 16.5 10V8ZM15.0192 10.805C15.0982 10.4079 15.4081 10.0981 15.8045 10.0192L15.4143 8.05764C14.2239 8.29443 13.2943 9.22505 13.0576 10.4148L15.0192 10.805ZM5 11.5V13.5H7V11.5H5ZM2 13.5V11.5H0V13.5H2ZM2 11.5C2 10.9874 2.00484 10.8772 2.01921 10.805L0.0576442 10.4148C-0.00484324 10.7289 0 11.0833 0 11.5H2ZM3.49956 8C3.08283 8 2.72843 7.99516 2.41428 8.05764L2.80447 10.0192C2.87671 10.0048 2.98697 10 3.49956 10V8ZM2.01921 10.805C2.09819 10.4079 2.40813 10.0981 2.80447 10.0192L2.41428 8.05764C1.22386 8.29443 0.294294 9.22505 0.0576442 10.4148L2.01921 10.805ZM3.49956 15C2.98697 15 2.87671 14.9951 2.80447 14.9808L2.41428 16.9423C2.72843 17.0048 3.08284 17 3.49956 17V15ZM0 13.5C0 13.9167 -0.00484359 14.2711 0.0576441 14.5853L2.01921 14.1951C2.00484 14.1228 2 14.0126 2 13.5H0ZM2.80447 14.9808C2.40808 14.9019 2.09818 14.5921 2.01921 14.1951L0.0576442 14.5853C0.294304 15.775 1.22391 16.7056 2.41428 16.9423L2.80447 14.9808ZM5 13.5C5 14.0139 4.99544 14.1231 4.98113 14.1951L6.9427 14.5853C7.00524 14.2708 7 13.9154 7 13.5H5ZM3.49956 17C3.91622 17 4.27111 17.0048 4.58527 16.9423L4.19509 14.9808C4.12285 14.9951 4.0122 15 3.49956 15V17ZM4.98113 14.1951C4.90227 14.5915 4.59204 14.9018 4.19509 14.9808L4.58527 16.9423C5.77508 16.7057 6.70593 15.7756 6.9427 14.5853L4.98113 14.1951ZM7 11.5C7 11.0846 7.00524 10.7292 6.9427 10.4148L4.98113 10.805C4.99544 10.8769 5 10.9861 5 11.5H7ZM3.49956 10C4.0122 10 4.12285 10.0048 4.19509 10.0192L4.58527 8.05764C4.27111 7.99515 3.91622 8 3.49956 8V10ZM6.9427 10.4148C6.70594 9.22449 5.77513 8.29432 4.58527 8.05764L4.19509 10.0192C4.592 10.0982 4.90226 10.4085 4.98113 10.805L6.9427 10.4148ZM18 8C18 3.58172 14.4183 0 10 0V2C13.3137 2 16 4.68629 16 8H18ZM10 0C5.58172 0 2 3.58172 2 8H4C4 4.68629 6.68629 2 10 2V0Z" fill="#CD3838"/>
</svg>
