<svg width="21" height="19" viewBox="0 0 21 19" fill="none" xmlns="http://www.w3.org/2000/svg">
<path fill-rule="evenodd" clip-rule="evenodd" d="M4.7876 11.5196C4.83137 11.5344 4.87555 11.5448 4.91969 11.5512C4.96783 11.6644 5.03002 11.8107 5.10258 11.9818C5.27966 12.3994 5.51825 12.9643 5.76452 13.5535C6.26677 14.7552 6.77338 15.9939 6.88527 16.3485C7.02378 16.7868 7.17019 17.0848 7.33002 17.2883C7.41267 17.3935 7.50825 17.4853 7.62009 17.5549C7.67639 17.5899 7.73587 17.6186 7.79795 17.64C7.80068 17.641 7.80341 17.6419 7.80614 17.6428C8.12616 17.7636 8.41792 17.7133 8.60059 17.6518C8.69833 17.6188 8.77741 17.5791 8.83346 17.5469C8.86204 17.5304 8.88618 17.5151 8.90544 17.5021L8.90998 17.4991L11.7362 15.7366L15.0007 18.2394C15.0489 18.2763 15.1014 18.3073 15.1571 18.3316C15.5493 18.5027 15.929 18.5624 16.2863 18.5136C16.6429 18.4649 16.9261 18.3151 17.1369 18.1464C17.3433 17.9813 17.4832 17.7963 17.5704 17.6589C17.6149 17.5887 17.6483 17.5266 17.6718 17.4791C17.6837 17.4552 17.6932 17.4346 17.7005 17.4181L17.71 17.3963L17.7135 17.3877L17.715 17.3841L17.7157 17.3824L17.7163 17.3808C17.7335 17.3379 17.7466 17.2935 17.7556 17.2482L20.7359 2.22274C20.7454 2.17469 20.7502 2.12581 20.7502 2.07682C20.7502 1.63681 20.5844 1.21841 20.1946 0.964515C19.8614 0.747518 19.4902 0.738177 19.2556 0.755982C19.0026 0.775189 18.7689 0.837656 18.612 0.887572C18.5304 0.91355 18.462 0.938614 18.4127 0.957735C18.3879 0.967345 18.3675 0.97559 18.3524 0.981878L18.341 0.986665L1.62731 7.54321L1.62515 7.54399C1.6145 7.54786 1.60082 7.55297 1.58457 7.55929C1.55221 7.57189 1.50884 7.58965 1.45819 7.6126C1.35941 7.65738 1.22083 7.72734 1.07862 7.82473C0.851432 7.98031 0.328942 8.40641 0.416923 9.10971C0.487112 9.67078 0.871492 10.0154 1.10568 10.1811C1.23427 10.2721 1.35644 10.3371 1.44541 10.3795C1.48668 10.3991 1.57238 10.4339 1.60956 10.4491L1.61895 10.4529L4.7876 11.5196ZM18.926 2.36786L18.9236 2.36888C18.9153 2.3725 18.9069 2.37596 18.8985 2.37928L2.16446 8.94378C2.15572 8.94721 2.14692 8.95047 2.13806 8.95357L2.12875 8.9571C2.11804 8.96127 2.10002 8.96858 2.0774 8.97884C2.06457 8.98465 2.05118 8.99099 2.03753 8.9978C2.05629 9.00836 2.07423 9.01754 2.09018 9.02513C2.10549 9.03242 2.11717 9.0374 2.12356 9.04003L5.26619 10.098C5.32371 10.1174 5.37733 10.143 5.42655 10.174L15.8033 4.09948L15.813 4.09374C15.8206 4.08927 15.8305 4.08353 15.8424 4.0768C15.866 4.06345 15.8985 4.04568 15.9371 4.02603C16.0091 3.98938 16.1243 3.93497 16.2541 3.89485C16.3445 3.86692 16.611 3.78823 16.8991 3.88064C17.0769 3.93767 17.261 4.06028 17.3807 4.26798C17.4402 4.37117 17.4719 4.47483 17.4872 4.56972C17.528 4.7192 17.5216 4.86681 17.4897 4.99424C17.4209 5.26875 17.228 5.48287 17.0525 5.64665C16.9022 5.78706 14.9568 7.66292 13.0377 9.51468C12.0806 10.4381 11.1333 11.3525 10.4253 12.0359L9.96023 12.4849L15.8322 16.9867C15.9668 17.0349 16.0464 17.0325 16.0833 17.0274C16.1272 17.0214 16.1631 17.0045 16.1998 16.9752C16.2408 16.9424 16.2767 16.898 16.3035 16.8557L16.3046 16.854L19.1951 2.28102C19.1522 2.29133 19.1088 2.30361 19.067 2.31691C19.0196 2.33198 18.9806 2.34634 18.9547 2.35637C18.9419 2.36134 18.9327 2.36511 18.9277 2.36719L18.926 2.36786ZM10.4647 14.7618L9.29321 13.8636L9.00934 15.6693L10.4647 14.7618ZM8.21852 12.0814L9.3835 10.9567C10.0916 10.2732 11.039 9.35879 11.9961 8.43524L12.9686 7.497L6.44859 11.3138L6.48357 11.3963C6.66127 11.8154 6.90093 12.3827 7.14851 12.9751C7.33364 13.418 7.52723 13.8844 7.70356 14.3162L7.98659 12.5158C8.01388 12.3422 8.09868 12.192 8.21852 12.0814Z" fill="white"/>
</svg>
