<svg width="20" height="21" viewBox="0 0 20 21" fill="none" xmlns="http://www.w3.org/2000/svg">
<path d="M6.88595 5.66985C7.06891 5.67475 7.27175 5.68465 7.46474 6.11303C7.59271 6.39821 7.80829 6.92321 7.9839 7.35087C8.12055 7.68366 8.233 7.95751 8.26114 8.01356C8.32544 8.14156 8.36502 8.28926 8.28093 8.46156C8.27102 8.48188 8.26165 8.50132 8.25264 8.52003C8.18518 8.66003 8.13717 8.75966 8.02373 8.88994C7.97709 8.94348 7.9285 9.00219 7.88008 9.06069C7.79494 9.16358 7.71035 9.2658 7.63785 9.33802C7.50924 9.46593 7.37563 9.60391 7.52402 9.85991C7.6725 10.1159 8.19192 10.9579 8.95868 11.6373C9.783 12.3712 10.4998 12.6805 10.8622 12.8368C10.9325 12.8672 10.9895 12.8918 11.0313 12.9126C11.2886 13.0406 11.4419 13.0209 11.5903 12.8486C11.7388 12.6762 12.2334 12.1001 12.4066 11.8441C12.5748 11.5881 12.7479 11.6275 12.9854 11.7161C13.2228 11.8047 14.4892 12.4251 14.7464 12.5531C14.7972 12.5784 14.8448 12.6012 14.8889 12.6224C15.0678 12.7082 15.1895 12.7665 15.2411 12.8535C15.3054 12.9618 15.3054 13.4739 15.0927 14.0746C14.8751 14.6752 13.8263 15.2513 13.3514 15.2956C13.3064 15.2999 13.2617 15.3053 13.2156 15.3108C12.7804 15.3635 12.228 15.4303 10.2596 14.6555C7.83424 13.7018 6.23322 11.3354 5.90953 10.857C5.88398 10.8192 5.86638 10.7932 5.85698 10.7806L5.8515 10.7733C5.70423 10.5762 4.80328 9.37067 4.80328 8.12685C4.80328 6.93682 5.38951 6.31726 5.65689 6.03467C5.67384 6.01676 5.6895 6.00021 5.70366 5.98494C5.94107 5.72895 6.21814 5.66495 6.39125 5.66495C6.56445 5.66495 6.73756 5.66495 6.88595 5.66985Z" fill="white"/>
<path fill-rule="evenodd" clip-rule="evenodd" d="M0.18418 19.8314C0.102363 20.1284 0.372852 20.4025 0.6709 20.3247L5.27824 19.1213C6.7326 19.909 8.37 20.3275 10.0371 20.3275H10.0421C15.5281 20.3275 20 15.8815 20 10.4163C20 7.76735 18.966 5.27594 17.0863 3.40491C15.2065 1.53397 12.7084 0.5 10.042 0.5C4.55607 0.5 0.0841071 4.94605 0.0841071 10.4114C0.0834837 12.15 0.542402 13.8582 1.41479 15.3645L0.18418 19.8314ZM2.86092 15.7629C2.96774 15.3752 2.91437 14.9608 2.71281 14.6127C1.97266 13.3348 1.58358 11.8855 1.58411 10.4114C1.58411 5.78158 5.37738 2 10.042 2C12.3119 2 14.4296 2.87698 16.0281 4.46805C17.6248 6.05737 18.5 8.16611 18.5 10.4163C18.5 15.0459 14.7068 18.8275 10.0421 18.8275H10.0371C8.62061 18.8275 7.22863 18.4718 5.99266 17.8023C5.65814 17.6211 5.26726 17.5738 4.89916 17.67L2.13676 18.3915L2.86092 15.7629Z" fill="white"/>
</svg>
