<svg width="22" height="17" viewBox="0 0 22 17" fill="none" xmlns="http://www.w3.org/2000/svg">
<path fill-rule="evenodd" clip-rule="evenodd" d="M9.38587 4.85691C9.15417 4.71789 8.86561 4.71425 8.63048 4.84738C8.39534 4.98051 8.25 5.22983 8.25 5.50003V11.5C8.25 11.7702 8.39534 12.0196 8.63048 12.1527C8.86561 12.2858 9.15417 12.2822 9.38587 12.1432L14.3859 9.14315C14.6118 9.00761 14.75 8.76348 14.75 8.50003C14.75 8.23658 14.6118 7.99245 14.3859 7.85691L9.38587 4.85691ZM12.5423 8.50003L9.75 10.1754V6.82467L12.5423 8.50003Z" fill="white"/>
<path fill-rule="evenodd" clip-rule="evenodd" d="M16.0307 1.14131C12.682 0.879329 9.31804 0.879328 5.96938 1.14131L3.72868 1.31661C2.36612 1.42321 1.25143 2.44442 1.02619 3.79246C0.505429 6.90924 0.505429 10.0908 1.02619 13.2076C1.25143 14.5556 2.36612 15.5768 3.72868 15.6834L5.96938 15.8587C9.31803 16.1207 12.682 16.1207 16.0307 15.8587L18.2714 15.6834C19.6339 15.5768 20.7486 14.5556 20.9739 13.2076C21.4946 10.0908 21.4946 6.90924 20.9739 3.79246C20.7486 2.44442 19.6339 1.42321 18.2714 1.31661L16.0307 1.14131ZM6.08638 2.63674C9.35715 2.38085 12.6429 2.38085 15.9137 2.63674L18.1544 2.81204C18.83 2.8649 19.3827 3.37125 19.4944 4.03966C19.9878 6.99277 19.9878 10.0073 19.4944 12.9604C19.3827 13.6288 18.83 14.1352 18.1544 14.188L15.9137 14.3633C12.6429 14.6192 9.35715 14.6192 6.08638 14.3633L3.84568 14.188C3.17007 14.1352 2.61736 13.6288 2.50568 12.9604C2.01227 10.0073 2.01227 6.99277 2.50568 4.03966C2.61736 3.37125 3.17007 2.8649 3.84568 2.81204L6.08638 2.63674Z" fill="white"/>
</svg>
