<svg width="183" height="40" viewBox="0 0 183 40" fill="none" xmlns="http://www.w3.org/2000/svg">
<circle cx="20" cy="20" r="20" fill="#CD3838"/>
<path fill-rule="evenodd" clip-rule="evenodd" d="M36.1999 28.6469H31.3313L30.4055 26.8276L29.4797 25.0082L24.3453 24.9953L19.211 24.9823L18.283 26.8146L17.3551 28.6469H14.944C12.533 28.6469 12.533 28.6469 12.6562 28.3797C12.7239 28.2328 13.3856 26.9383 14.1265 25.5031C14.8675 24.0678 16.0156 21.842 16.6779 20.5569C17.3403 19.2717 18.2321 17.542 18.6598 16.7132C19.0875 15.8843 19.866 14.3734 20.3899 13.3556C21.3423 11.505 21.3423 11.505 21.7567 11.4713C21.9846 11.4527 23.3207 11.4451 24.7258 11.4544C26.3395 11.4651 27.2987 11.4901 27.3298 11.5222C27.3569 11.5502 29.0433 14.7907 31.0774 18.7233C33.1114 22.6558 35.0961 26.4974 35.4878 27.2601L36.1999 28.6469ZM24.4697 21.706C26.2657 21.7029 27.7498 21.6857 27.7677 21.6678C27.7856 21.6499 27.0293 20.0935 26.0871 18.2091C24.504 15.0432 24.3683 14.7906 24.3001 14.8829C24.2595 14.9378 23.472 16.4871 22.5501 18.3257C20.8739 21.6685 20.8739 21.6685 21.0391 21.69C21.1299 21.7019 22.6737 21.7091 24.4697 21.706Z" fill="white"/>
<path fill-rule="evenodd" clip-rule="evenodd" d="M3.76591 28.647C5.23419 25.7692 6.27798 23.731 7.03273 22.2611C7.78747 20.7911 9.01086 18.4085 9.75137 16.9664C10.4919 15.5243 11.4251 13.705 11.8253 12.9236C12.5528 11.5029 12.5528 11.5029 12.8581 11.4701C13.0261 11.452 14.1978 11.445 15.4621 11.4544C16.7263 11.4638 17.7761 11.4869 17.7951 11.5059C17.814 11.5248 16.9002 13.3514 15.7645 15.5649C14.6288 17.7784 12.6534 21.6274 11.3748 24.1182L9.05005 28.647H6.40798H3.76591Z" fill="white"/>
<path d="M45.9391 15.2645H47.3307V25.524H45.9391V15.2645Z" fill="#F9F9F9"/>
<path d="M49.6407 15.2645H50.9298L56.3498 23.2816V15.2645H57.7121V25.524H56.4377L51.0031 17.5362V25.524H49.6407V15.2645Z" fill="#F9F9F9"/>
<path d="M63.4722 25.524C63.0425 25.524 62.7349 25.27 62.5493 24.7619L59.0337 15.2645H60.4839L63.5015 23.7945H63.5308L66.5631 15.2645H68.0133L64.1607 25.524H63.4722Z" fill="#F9F9F9"/>
<path d="M69.4713 15.2645H70.8629V25.524H69.4713V15.2645Z" fill="#F9F9F9"/>
<path d="M76.3516 25.6413C75.668 25.6413 75.0625 25.4849 74.5352 25.1723C74.0079 24.8596 73.5977 24.4199 73.3047 23.8532C73.0215 23.2767 72.8799 22.6123 72.8799 21.8599V18.9286C72.8799 18.1762 73.0264 17.5167 73.3194 16.95C73.6123 16.3735 74.0225 15.9289 74.5498 15.6162C75.087 15.3036 75.7071 15.1472 76.4102 15.1472H77.963C78.627 15.1472 79.213 15.2938 79.7208 15.5869C80.2384 15.8703 80.6339 16.2709 80.9073 16.7887C81.1905 17.3066 81.3321 17.9026 81.3321 18.5768H79.9698C79.9698 17.9222 79.7843 17.3945 79.4132 16.9939C79.0518 16.5933 78.5684 16.393 77.963 16.393H76.4102C75.7754 16.393 75.2579 16.6275 74.8575 17.0965C74.4668 17.5655 74.2715 18.186 74.2715 18.9579V21.8306C74.2715 22.6025 74.462 23.2229 74.8428 23.6919C75.2237 24.161 75.7266 24.3955 76.3516 24.3955H77.9337C78.5587 24.3955 79.0567 24.1756 79.4278 23.7359C79.8087 23.2865 79.9991 22.7002 79.9991 21.9771H81.3614C81.3614 22.7002 81.2198 23.3402 80.9366 23.8971C80.6534 24.4541 80.253 24.884 79.7354 25.1869C79.2179 25.4898 78.6173 25.6413 77.9337 25.6413H76.3516Z" fill="#F9F9F9"/>
<path d="M85.3199 16.481H82.0679V15.2645H89.9635V16.481H86.7115V25.524H85.3199V16.481Z" fill="#F9F9F9"/>
<path d="M94.6644 25.6413C94.0003 25.6413 93.4144 25.4996 92.9066 25.2162C92.4085 24.9231 92.0228 24.5127 91.7493 23.9851C91.4759 23.4574 91.3392 22.8516 91.3392 22.1677V15.2645H92.7308V22.1677C92.7308 22.8321 92.9066 23.3695 93.2581 23.7799C93.6195 24.1903 94.0882 24.3955 94.6644 24.3955H96.2318C96.808 24.3955 97.2718 24.1903 97.6234 23.7799C97.9847 23.3695 98.1654 22.8321 98.1654 22.1677V15.2645H99.557V22.1677C99.557 22.8516 99.4203 23.4574 99.1469 23.9851C98.8734 24.5127 98.4828 24.9231 97.975 25.2162C97.4769 25.4996 96.8959 25.6413 96.2318 25.6413H94.6644Z" fill="#F9F9F9"/>
<path d="M104.438 25.6413C103.49 25.6413 102.733 25.3579 102.167 24.7912C101.601 24.2245 101.317 23.4623 101.317 22.5048H102.68C102.68 23.0813 102.841 23.5405 103.163 23.8825C103.495 24.2245 103.93 24.3955 104.467 24.3955H106.093C106.63 24.3955 107.06 24.2831 107.382 24.0584C107.704 23.8239 107.865 23.5161 107.865 23.135V22.3436C107.865 22.0407 107.748 21.7866 107.514 21.5814C107.289 21.3762 106.967 21.2394 106.547 21.171L103.881 20.7313C103.1 20.6043 102.494 20.3356 102.064 19.9252C101.645 19.5148 101.435 19.0019 101.435 18.3863V17.5802C101.435 16.8474 101.713 16.2611 102.27 15.8214C102.836 15.3719 103.578 15.1472 104.496 15.1472H106.151C106.728 15.1472 107.235 15.2694 107.675 15.5136C108.124 15.7481 108.471 16.0852 108.715 16.5249C108.959 16.9548 109.081 17.4532 109.081 18.0199H107.704C107.704 17.5313 107.563 17.1405 107.279 16.8474C106.996 16.5445 106.62 16.393 106.151 16.393H104.496C103.998 16.393 103.593 16.5054 103.28 16.7301C102.978 16.9451 102.826 17.2431 102.826 17.6242V18.2837C102.826 18.5964 102.934 18.8553 103.148 19.0605C103.373 19.2657 103.69 19.4074 104.101 19.4855L106.737 19.9399C107.548 20.0767 108.168 20.3454 108.598 20.746C109.037 21.1368 109.257 21.6303 109.257 22.2263V23.179C109.257 23.9216 108.969 24.5176 108.393 24.9671C107.826 25.4165 107.069 25.6413 106.122 25.6413H104.438Z" fill="#F9F9F9"/>
<path d="M120.804 22.8272H116.527L115.53 25.524H114.08L118.05 15.2645H118.68C119.1 15.2645 119.398 15.4941 119.574 15.9533L123.25 25.524H121.815L120.804 22.8272ZM116.937 21.6547H120.394L118.68 17.0232H118.665L116.937 21.6547Z" fill="#F9F9F9"/>
<path d="M127.421 25.6413C126.738 25.6413 126.132 25.4849 125.605 25.1723C125.078 24.8596 124.667 24.4199 124.374 23.8532C124.091 23.2767 123.95 22.6123 123.95 21.8599V18.9286C123.95 18.1762 124.096 17.5167 124.389 16.95C124.682 16.3735 125.092 15.9289 125.62 15.6162C126.157 15.3036 126.777 15.1472 127.48 15.1472H129.033C129.697 15.1472 130.283 15.2938 130.791 15.5869C131.308 15.8703 131.704 16.2709 131.977 16.7887C132.26 17.3066 132.402 17.9026 132.402 18.5768H131.04C131.04 17.9222 130.854 17.3945 130.483 16.9939C130.122 16.5933 129.638 16.393 129.033 16.393H127.48C126.845 16.393 126.328 16.6275 125.927 17.0965C125.537 17.5655 125.341 18.186 125.341 18.9579V21.8306C125.341 22.6025 125.532 23.2229 125.913 23.6919C126.293 24.161 126.796 24.3955 127.421 24.3955H129.003C129.628 24.3955 130.126 24.1756 130.498 23.7359C130.878 23.2865 131.069 22.7002 131.069 21.9771H132.431C132.431 22.7002 132.29 23.3402 132.006 23.8971C131.723 24.4541 131.323 24.884 130.805 25.1869C130.288 25.4898 129.687 25.6413 129.003 25.6413H127.421Z" fill="#F9F9F9"/>
<path d="M139.63 22.8272H135.352L134.356 25.524H132.906L136.876 15.2645H137.506C137.926 15.2645 138.223 15.4941 138.399 15.9533L142.076 25.524H140.64L139.63 22.8272ZM135.762 21.6547H139.22L137.506 17.0232H137.491L135.762 21.6547Z" fill="#F9F9F9"/>
<path d="M144.425 25.524C144.083 25.524 143.81 25.4263 143.604 25.2309C143.409 25.0355 143.312 24.7668 143.312 24.4248V15.2645H147.779C148.522 15.2645 149.171 15.4061 149.728 15.6895C150.294 15.9729 150.729 16.3784 151.031 16.906C151.344 17.4239 151.5 18.0199 151.5 18.6941V21.8013C151.5 23.0226 151.188 23.9509 150.563 24.586C149.947 25.2113 149.039 25.524 147.838 25.524H144.425ZM147.794 24.2782C148.556 24.2782 149.132 24.0681 149.523 23.648C149.913 23.2278 150.108 22.6025 150.108 21.7719V18.7234C150.108 18.059 149.889 17.5265 149.449 17.1258C149.02 16.7155 148.448 16.5103 147.735 16.5103H144.703V24.2782H147.794Z" fill="#F9F9F9"/>
<path d="M154.424 25.524C154.082 25.524 153.809 25.4263 153.604 25.2309C153.409 25.0355 153.311 24.7668 153.311 24.4248V15.2645H160.503V16.481H154.702V19.6761H160.064V20.8779H154.702V24.3075H160.503V25.524H154.424Z" fill="#F9F9F9"/>
<path d="M162.237 15.2645H163.526L167.086 21.8452L170.558 15.2645H171.847V25.524H170.485V17.8733L167.789 22.9152C167.672 23.1301 167.56 23.2816 167.452 23.3695C167.355 23.4574 167.237 23.5014 167.101 23.5014H166.705L163.614 17.8733V25.524H162.237V15.2645Z" fill="#F9F9F9"/>
<path d="M176.852 21.5668L173.073 15.2645H174.582L177.556 20.2916L180.529 15.2645H182.038L178.259 21.5668V25.524H176.852V21.5668Z" fill="#F9F9F9"/>
</svg>
