<svg width="183" height="40" viewBox="0 0 183 40" fill="none" xmlns="http://www.w3.org/2000/svg">
<circle cx="20" cy="20" r="20" fill="#CD3838"/>
<path fill-rule="evenodd" clip-rule="evenodd" d="M36.1998 28.647H31.3313L30.4054 26.8276L29.4796 25.0083L24.3453 24.9953L19.2109 24.9824L18.283 26.8147L17.355 28.647H14.944C12.5329 28.647 12.5329 28.647 12.6561 28.3798C12.7239 28.2329 13.3855 26.9384 14.1265 25.5031C14.8674 24.0679 16.0155 21.8421 16.6779 20.5569C17.3402 19.2717 18.2321 17.5421 18.6598 16.7132C19.0875 15.8844 19.866 14.3735 20.3898 13.3557C21.3422 11.5051 21.3422 11.5051 21.7566 11.4713C21.9845 11.4527 23.3207 11.4452 24.7258 11.4545C26.3394 11.4652 27.2987 11.4902 27.3298 11.5223C27.3568 11.5503 29.0432 14.7907 31.0773 18.7233C33.1114 22.6559 35.0961 26.4975 35.4877 27.2602L36.1998 28.647ZM24.4696 21.706C26.2657 21.7029 27.7498 21.6858 27.7677 21.6679C27.7856 21.6499 27.0293 20.0935 26.087 18.2092C24.5039 15.0433 24.3682 14.7907 24.3 14.883C24.2595 14.9379 23.472 16.4871 22.5501 18.3257C20.8739 21.6686 20.8739 21.6686 21.039 21.6901C21.1298 21.702 22.6736 21.7091 24.4696 21.706Z" fill="white"/>
<path fill-rule="evenodd" clip-rule="evenodd" d="M3.76587 28.6471C5.23415 25.7693 6.27795 23.7311 7.03269 22.2612C7.78743 20.7912 9.01083 18.4086 9.75134 16.9665C10.4918 15.5244 11.4251 13.7051 11.8252 12.9237C12.5527 11.503 12.5527 11.503 12.8581 11.4702C13.026 11.4521 14.1978 11.445 15.462 11.4544C16.7263 11.4638 17.7761 11.487 17.795 11.506C17.814 11.5249 16.9002 13.3515 15.7645 15.565C14.6288 17.7784 12.6534 21.6275 11.3748 24.1183L9.05001 28.6471H6.40794H3.76587Z" fill="white"/>
<path d="M45.9391 15.2644H47.3307V25.5239H45.9391V15.2644Z" fill="black"/>
<path d="M49.6407 15.2644H50.9298L56.3498 23.2815V15.2644H57.7121V25.5239H56.4377L51.003 17.5362V25.5239H49.6407V15.2644Z" fill="black"/>
<path d="M63.4722 25.5239C63.0425 25.5239 62.7349 25.2699 62.5493 24.7618L59.0337 15.2644H60.4839L63.5015 23.7945H63.5308L66.563 15.2644H68.0132L64.1607 25.5239H63.4722Z" fill="black"/>
<path d="M69.4712 15.2644H70.8628V25.5239H69.4712V15.2644Z" fill="black"/>
<path d="M76.3516 25.6412C75.668 25.6412 75.0625 25.4849 74.5352 25.1722C74.0078 24.8595 73.5977 24.4198 73.3047 23.8531C73.0215 23.2766 72.8799 22.6122 72.8799 21.8598V18.9285C72.8799 18.1762 73.0264 17.5166 73.3193 16.9499C73.6123 16.3734 74.0225 15.9288 74.5498 15.6162C75.0869 15.3035 75.7071 15.1472 76.4102 15.1472H77.9629C78.627 15.1472 79.2129 15.2937 79.7208 15.5868C80.2383 15.8702 80.6339 16.2708 80.9073 16.7887C81.1905 17.3065 81.3321 17.9026 81.3321 18.5768H79.9698C79.9698 17.9221 79.7842 17.3945 79.4131 16.9939C79.0518 16.5933 78.5684 16.393 77.9629 16.393H76.4102C75.7754 16.393 75.2578 16.6275 74.8574 17.0965C74.4668 17.5655 74.2715 18.1859 74.2715 18.9578V21.8305C74.2715 22.6024 74.4619 23.2229 74.8428 23.6919C75.2237 24.1609 75.7266 24.3954 76.3516 24.3954H77.9336C78.5586 24.3954 79.0567 24.1756 79.4278 23.7359C79.8087 23.2864 79.9991 22.7001 79.9991 21.9771H81.3614C81.3614 22.7001 81.2198 23.3401 80.9366 23.8971C80.6534 24.454 80.253 24.8839 79.7354 25.1868C79.2178 25.4898 78.6172 25.6412 77.9336 25.6412H76.3516Z" fill="black"/>
<path d="M85.3198 16.4809H82.0679V15.2644H89.9634V16.4809H86.7115V25.5239H85.3198V16.4809Z" fill="black"/>
<path d="M94.6644 25.6412C94.0003 25.6412 93.4144 25.4995 92.9065 25.2162C92.4085 24.923 92.0227 24.5127 91.7493 23.985C91.4759 23.4574 91.3391 22.8516 91.3391 22.1676V15.2644H92.7308V22.1676C92.7308 22.832 92.9065 23.3694 93.2581 23.7798C93.6194 24.1902 94.0882 24.3954 94.6644 24.3954H96.2318C96.8079 24.3954 97.2718 24.1902 97.6234 23.7798C97.9847 23.3694 98.1654 22.832 98.1654 22.1676V15.2644H99.557V22.1676C99.557 22.8516 99.4203 23.4574 99.1468 23.985C98.8734 24.5127 98.4828 24.923 97.9749 25.2162C97.4769 25.4995 96.8958 25.6412 96.2318 25.6412H94.6644Z" fill="black"/>
<path d="M104.437 25.6412C103.49 25.6412 102.733 25.3578 102.167 24.7911C101.601 24.2244 101.317 23.4623 101.317 22.5047H102.68C102.68 23.0812 102.841 23.5404 103.163 23.8824C103.495 24.2244 103.93 24.3954 104.467 24.3954H106.093C106.63 24.3954 107.06 24.283 107.382 24.0583C107.704 23.8238 107.865 23.516 107.865 23.1349V22.3435C107.865 22.0406 107.748 21.7865 107.514 21.5814C107.289 21.3762 106.967 21.2394 106.547 21.171L103.881 20.7313C103.1 20.6043 102.494 20.3356 102.064 19.9252C101.644 19.5148 101.435 19.0018 101.435 18.3862V17.5801C101.435 16.8473 101.713 16.261 102.269 15.8214C102.836 15.3719 103.578 15.1472 104.496 15.1472H106.151C106.728 15.1472 107.235 15.2693 107.675 15.5136C108.124 15.7481 108.471 16.0852 108.715 16.5249C108.959 16.9548 109.081 17.4531 109.081 18.0198H107.704C107.704 17.5313 107.563 17.1404 107.279 16.8473C106.996 16.5444 106.62 16.393 106.151 16.393H104.496C103.998 16.393 103.593 16.5053 103.28 16.7301C102.978 16.945 102.826 17.243 102.826 17.6241V18.2836C102.826 18.5963 102.934 18.8552 103.148 19.0604C103.373 19.2656 103.69 19.4073 104.101 19.4855L106.737 19.9398C107.548 20.0766 108.168 20.3453 108.598 20.7459C109.037 21.1368 109.257 21.6302 109.257 22.2262V23.1789C109.257 23.9215 108.969 24.5175 108.393 24.967C107.826 25.4165 107.069 25.6412 106.122 25.6412H104.437Z" fill="black"/>
<path d="M120.804 22.8272H116.527L115.53 25.5239H114.08L118.05 15.2644H118.68C119.1 15.2644 119.398 15.494 119.573 15.9533L123.25 25.5239H121.815L120.804 22.8272ZM116.937 21.6546H120.394L118.68 17.0232H118.665L116.937 21.6546Z" fill="black"/>
<path d="M127.421 25.6412C126.738 25.6412 126.132 25.4849 125.605 25.1722C125.078 24.8595 124.667 24.4198 124.374 23.8531C124.091 23.2766 123.95 22.6122 123.95 21.8598V18.9285C123.95 18.1762 124.096 17.5166 124.389 16.9499C124.682 16.3734 125.092 15.9288 125.62 15.6162C126.157 15.3035 126.777 15.1472 127.48 15.1472H129.033C129.697 15.1472 130.283 15.2937 130.791 15.5868C131.308 15.8702 131.704 16.2708 131.977 16.7887C132.26 17.3065 132.402 17.9026 132.402 18.5768H131.04C131.04 17.9221 130.854 17.3945 130.483 16.9939C130.122 16.5933 129.638 16.393 129.033 16.393H127.48C126.845 16.393 126.328 16.6275 125.927 17.0965C125.537 17.5655 125.341 18.1859 125.341 18.9578V21.8305C125.341 22.6024 125.532 23.2229 125.913 23.6919C126.293 24.1609 126.796 24.3954 127.421 24.3954H129.003C129.628 24.3954 130.126 24.1756 130.498 23.7359C130.878 23.2864 131.069 22.7001 131.069 21.9771H132.431C132.431 22.7001 132.29 23.3401 132.006 23.8971C131.723 24.454 131.323 24.8839 130.805 25.1868C130.288 25.4898 129.687 25.6412 129.003 25.6412H127.421Z" fill="black"/>
<path d="M139.63 22.8272H135.352L134.356 25.5239H132.906L136.876 15.2644H137.506C137.926 15.2644 138.223 15.494 138.399 15.9533L142.076 25.5239H140.64L139.63 22.8272ZM135.762 21.6546H139.22L137.506 17.0232H137.491L135.762 21.6546Z" fill="black"/>
<path d="M144.425 25.5239C144.083 25.5239 143.81 25.4262 143.604 25.2308C143.409 25.0354 143.311 24.7667 143.311 24.4247V15.2644H147.779C148.521 15.2644 149.171 15.4061 149.728 15.6894C150.294 15.9728 150.729 16.3783 151.031 16.9059C151.344 17.4238 151.5 18.0198 151.5 18.694V21.8012C151.5 23.0226 151.188 23.9508 150.563 24.5859C149.947 25.2113 149.039 25.5239 147.838 25.5239H144.425ZM147.794 24.2781C148.556 24.2781 149.132 24.0681 149.522 23.6479C149.913 23.2278 150.108 22.6024 150.108 21.7719V18.7233C150.108 18.0589 149.889 17.5264 149.449 17.1258C149.02 16.7154 148.448 16.5102 147.735 16.5102H144.703V24.2781H147.794Z" fill="black"/>
<path d="M154.424 25.5239C154.082 25.5239 153.809 25.4262 153.604 25.2308C153.409 25.0354 153.311 24.7667 153.311 24.4247V15.2644H160.503V16.4809H154.702V19.676H160.064V20.8778H154.702V24.3075H160.503V25.5239H154.424Z" fill="black"/>
<path d="M162.237 15.2644H163.526L167.086 21.8452L170.558 15.2644H171.847V25.5239H170.484V17.8733L167.789 22.9151C167.672 23.1301 167.56 23.2815 167.452 23.3694C167.355 23.4574 167.237 23.5014 167.101 23.5014H166.705L163.614 17.8733V25.5239H162.237V15.2644Z" fill="black"/>
<path d="M176.852 21.5667L173.073 15.2644H174.582L177.556 20.2916L180.529 15.2644H182.038L178.259 21.5667V25.5239H176.852V21.5667Z" fill="black"/>
</svg>
